<?xml version="1.0" ?><!DOCTYPE svg  PUBLIC '-//W3C//DTD SVG 1.1//EN'  'http://www.w3.org/Graphics/SVG/1.1/DTD/svg11.dtd'><svg enable-background="new 0 0 512 512" id="Layer_1" version="1.1" viewBox="0 0 512 512" xml:space="preserve" xmlns="http://www.w3.org/2000/svg" xmlns:xlink="http://www.w3.org/1999/xlink"><g><path d="M232.2,336.4c-1.5,4.1-1.9,8.1-2.8,11.9c-3.9,15.7-6.9,31.6-10.7,47.3c-2.9,11.9-6,23.9-10.2,35.5   c-3.6,10.2-8.5,20.1-13.4,29.8c-7.6,15.3-16.9,29.7-27,43.4c-1.7,2.3-2.6,6.3-6.1,5.4c-4.2-1.1-3.5-5.4-3.9-8.8   c-2.9-21.7-3.7-43.4-3-65.2c0.4-11.4,0.8-23,3.6-34.1c2.9-11.3,5-22.8,7.7-34.1c1.9-8,3.7-16.2,4.9-24.4c1.1-7.7,4.1-15.1,5.3-22.7   c1.6-10.3,4.5-20.3,6.6-30.5c1.9-9.2,4.3-18.4,6.2-27.6c1.3-6.3,2.6-12.5,4.3-18.7c0.8-3,0.2-6.2-1.3-9.5c-4-8.8-4.9-18.5-6.3-27.9   c-1.8-12.1-0.8-24.3,2.1-36.1c4.5-18.1,11.7-34.7,28.4-45.5c18.5-11.9,44.6-6.5,52.8,15.2c5.2,14,4.1,27.8,2.1,42   c-1.7,12.3-5.4,24.1-8.8,35.9c-2.7,9.1-5.6,18.2-7.9,27.4c-1.8,7.5-5.2,14.9-4.8,22.9c0.2,4.4-0.8,8.7-0.5,13.3   c1.1,17.9,11.3,29.2,26.3,36c8.4,3.8,18.1,4,27.9,1.5c10.3-2.6,18.8-7.4,26.8-13.7c9.1-7.2,15.3-16.8,21.3-26.4   c6.2-9.9,10.3-21,13.8-32.1c4.5-14.6,7.6-29.7,9.7-45c1.6-12,1.6-23.9,1.9-35.8c0.5-21.9-5.1-42.4-15.6-61.2   c-6.5-11.7-16.2-20.9-27.3-29c-9.3-6.7-19.7-10.2-29.8-14.5c-3.4-1.5-7.3-1.7-10.9-2.6c-11.8-2.9-24-2.7-36-2.2   c-14.8,0.6-29.1,3.8-42.8,9.4c-14.5,6-27.5,14.5-38.7,25.4C164.4,102,155.2,115,148,129.5c-5.6,11.4-9.7,23.6-11.6,35.9   c-2.3,15.3-4.1,30.7-1.2,46.5c1.8,10.1,5,19.6,9.1,28.8c1.9,4.3,4.9,8.2,8.1,11.7c3.7,4.1,4.3,8.6,3.3,13.4   c-1.7,8.4-3.8,16.8-5.9,25.1c-1.6,6.4-8.9,9.3-15.1,6.2c-18.8-9.7-32.2-24.4-40.6-43.8C86.4,235.4,82,216.7,81.9,197   c-0.1-13.8-0.9-27.7,2.3-41.2c2.5-10.9,5.4-21.6,9.4-32.1c5.1-13.4,11.9-25.6,19.7-37.5c11.6-17.8,26.6-32.5,43.8-44.9   c13.1-9.5,27.4-17.3,42.5-22.7c9.5-3.4,19.3-5.9,29.3-8c17.9-3.6,35.8-4.9,53.8-4.3c9.7,0.3,19.2,2.7,28.8,4.1   c13,2,24.8,6.9,36.6,12c7.9,3.4,15.4,7.9,22.6,12.8c11.4,7.7,21.6,16.8,30.7,27c10.8,12,19.2,25.6,26.1,40.3   c3.4,7.1,5.7,14.6,8.9,21.8c1.4,3.1,1.8,6.9,2.3,10.4c0.9,5.8,1.6,11.8,2.8,17.4c2.5,11.8,1.6,23.5,1.2,35.1   c-0.3,9.9-1.1,19.9-3.4,29.7c-1.1,4.6-0.8,9.3-2,14.1c-2,7.7-3.8,15.5-5.9,23.2c-3.2,12-7.9,23.4-13.4,34.4   c-11.8,23.8-27.4,44.6-49.7,59.9c-7.9,5.4-16.1,10.2-25,13.7c-19.6,7.5-40.1,10.8-60.8,6.7c-19.1-3.8-35.5-13.1-47.3-29.4   C234.5,338.2,233.4,337.5,232.2,336.4z" fill="#FFFFFF"/></g></svg>